# File created by Blade
# Date/Time:  Thu Jan 22 16:21:39 2015
# Frame Rate: 120.000 fps
#------------------------------------------------------
:FULLY-SPECIFIED
:DEGREES
2079
root 0.649629 37.950909 5.902277 -25.588644 -20.562098 10.609380
RightUpLeg 26.542000 1.620886 -5.222083
RightLeg 1.901246 -0.000000 -0.000000
RightFoot -10.509315 -4.996255 9.438529
RightToeBase 5.232789 -0.000000 -0.000000
LeftUpLeg -73.780154 -18.503715 -12.279889
LeftLeg 113.441003 -0.000000 -0.000000
LeftFoot 2.593505 8.348710 -30.715937
LeftToeBase 5.614766 -0.000000 -0.000000
Spine 35.351727 34.016144 14.476674
RightShoulder 9.847238 -15.705484 -26.973872
RightArm 37.856716 -16.602937 35.348378
RightForeArm 0.539154 -0.000000 67.523509
RightHand -0.500169 0.000000 12.577873
RightHandThumb1 -24.326973 -0.000000 -32.862282
LeftShoulder -39.437648 33.650036 2.364085
LeftArm 31.735701 -60.225836 -67.732887
LeftForeArm 7.979171 -0.000000 5.687856
LeftHand -27.722249 -0.000000 31.009089
LeftHandThumb1 -26.253704 0.000000 33.147579
Head 8.168599 54.295065 -8.172858
2080
root 0.643241 37.954820 5.914960 -25.605958 -20.485334 10.658715
RightUpLeg 26.555575 1.652623 -5.246672
RightLeg 1.952219 -0.000000 -0.000000
RightFoot -10.551616 -5.078539 9.370870
RightToeBase 5.145075 -0.000000 -0.000000
LeftUpLeg -73.855082 -18.490924 -12.432614
LeftLeg 113.586035 -0.000000 -0.000000
LeftFoot 2.788349 8.305162 -30.759169
LeftToeBase 5.714751 -0.000000 -0.000000
Spine 35.347232 34.250375 14.477237
RightShoulder 9.808340 -15.796573 -26.953081
RightArm 37.459649 -16.434714 35.842302
RightForeArm 0.188668 -0.000000 67.879239
RightHand -0.623388 0.000000 12.569931
RightHandThumb1 -24.326973 -0.000000 -32.862282
LeftShoulder -39.537015 33.666683 2.365673
LeftArm 32.186730 -60.409194 -68.285006
LeftForeArm 7.453874 -0.000000 5.804292
LeftHand -27.640915 0.000000 31.034398
LeftHandThumb1 -26.253704 0.000000 33.147579
Head 8.754917 54.806972 -7.730353
2081
root 0.638661 37.958598 5.929703 -25.632215 -20.405001 10.728095
RightUpLeg 26.587896 1.710915 -5.284042
RightLeg 1.973801 -0.000000 -0.000000
RightFoot -10.610893 -5.192474 9.362973
RightToeBase 5.149794 -0.000000 -0.000000
LeftUpLeg -73.909837 -18.485897 -12.594211
LeftLeg 113.712589 -0.000000 -0.000000
LeftFoot 2.966300 8.261070 -30.819378
LeftToeBase 5.754956 -0.000000 -0.000000
Spine 35.366791 34.513689 14.480836
RightShoulder 9.739861 -15.843099 -26.886774
RightArm 37.068159 -16.290889 36.329862
RightForeArm -0.084142 -0.000000 68.125818
RightHand -0.663171 -0.000000 12.357598
RightHandThumb1 -24.326973 -0.000000 -32.862282
LeftShoulder -39.512176 33.605568 2.492866
LeftArm 32.254196 -60.494421 -68.497162
LeftForeArm 6.995711 -0.000000 5.943461
LeftHand -27.607812 -0.000000 30.900270
LeftHandThumb1 -26.253704 0.000000 33.147579
Head 9.289416 55.234960 -7.305860
2082
root 0.633521 37.961892 5.943237 -25.669983 -20.331348 10.775362
RightUpLeg 26.637079 1.730220 -5.320916
RightLeg 1.992289 -0.000000 -0.000000
RightFoot -10.646165 -5.259326 9.406571
RightToeBase 5.142097 -0.000000 -0.000000
LeftUpLeg -73.937222 -18.483904 -12.748143
LeftLeg 113.831236 -0.000000 -0.000000
LeftFoot 3.121980 8.279246 -30.904047
LeftToeBase 5.661174 -0.000000 -0.000000
Spine 35.407107 34.706779 14.523363
RightShoulder 9.730167 -15.928624 -26.880672
RightArm 36.767793 -16.097413 36.790143
RightForeArm -0.341575 0.000000 68.289913
RightHand -0.798510 -0.000000 12.528745
RightHandThumb1 -24.326973 -0.000000 -32.862282
LeftShoulder -39.627214 33.624458 2.447846
LeftArm 32.641689 -60.507213 -68.875667
LeftForeArm 6.679116 -0.000000 5.869734
LeftHand -27.539650 -0.000000 30.947745
LeftHandThumb1 -26.253704 0.000000 33.147579
Head 9.842339 55.747897 -6.914136
2083
root 0.632146 37.965879 5.956313 -25.710379 -20.265092 10.834020
RightUpLeg 26.679201 1.677295 -5.415686
RightLeg 2.001404 -0.000000 -0.000000
RightFoot -10.647605 -5.252991 9.507792
RightToeBase 5.224986 -0.000000 -0.000000
LeftUpLeg -73.952742 -18.487722 -12.890855
LeftLeg 113.927065 -0.000000 -0.000000
LeftFoot 3.258851 8.256957 -30.926426
LeftToeBase 5.601421 -0.000000 -0.000000
Spine 35.469830 34.926859 14.618034
RightShoulder 9.709142 -16.013017 -26.872097
RightArm 36.458713 -15.918371 37.228285
RightForeArm -0.570658 -0.000000 68.395175
RightHand -0.960279 -0.000000 12.560065
RightHandThumb1 -24.326973 -0.000000 -32.862282
LeftShoulder -39.634135 33.613684 2.460389
LeftArm 32.892062 -60.547562 -69.180368
LeftForeArm 6.616737 -0.000000 5.862264
LeftHand -27.571008 0.000000 30.906168
LeftHandThumb1 -26.253704 0.000000 33.147579
Head 10.493179 56.200172 -6.493429
2084
root 0.627626 37.968498 5.970738 -25.773034 -20.193735 10.854565
RightUpLeg 26.746486 1.543829 -5.527021
RightLeg 2.034991 -0.000000 -0.000000
RightFoot -10.650361 -5.112769 9.771463
RightToeBase 5.518773 -0.000000 -0.000000
LeftUpLeg -73.932941 -18.515492 -12.996837
LeftLeg 114.029738 -0.000000 -0.000000
LeftFoot 3.372700 8.208271 -30.913717
LeftToeBase 5.644462 -0.000000 -0.000000
Spine 35.577565 35.100187 14.763441
RightShoulder 9.700045 -16.029378 -26.858590
RightArm 36.130451 -15.782490 37.631488
RightForeArm -0.823820 -0.000000 68.460698
RightHand -1.109109 -0.000000 12.719630
RightHandThumb1 -24.326973 -0.000000 -32.862282
LeftShoulder -39.650575 33.597908 2.506750
LeftArm 33.057706 -60.490885 -69.418463
LeftForeArm 6.367927 -0.000000 5.828319
LeftHand -27.314025 -0.000000 31.056845
LeftHandThumb1 -26.253704 0.000000 33.147579
Head 11.078814 56.648195 -6.088973
2085
root 0.625052 37.969632 5.984652 -25.832248 -20.138117 10.871148
RightUpLeg 26.793586 1.319501 -5.696142
RightLeg 2.085143 -0.000000 -0.000000
RightFoot -10.661930 -4.814383 10.128186
RightToeBase 6.039460 -0.000000 -0.000000
LeftUpLeg -73.906774 -18.538722 -13.088436
LeftLeg 114.129002 -0.000000 -0.000000
LeftFoot 3.459149 8.126216 -30.846335
LeftToeBase 5.708129 -0.000000 -0.000000
Spine 35.680253 35.256167 14.906736
RightShoulder 9.716056 -16.031466 -26.846870
RightArm 35.829660 -15.662547 37.970503
RightForeArm -0.961325 0.000000 68.475833
RightHand -1.159022 0.000000 12.735378
RightHandThumb1 -24.326973 -0.000000 -32.862282
LeftShoulder -39.780694 33.601989 2.475496
LeftArm 33.434635 -60.448345 -69.837447
LeftForeArm 6.443161 -0.000000 5.767644
LeftHand -27.335635 -0.000000 31.068856
LeftHandThumb1 -26.253704 0.000000 33.147579
Head 11.609273 57.070064 -5.739127
2086
root 0.624210 37.971251 5.997522 -25.892106 -20.100853 10.873555
RightUpLeg 26.827961 1.020197 -5.899723
RightLeg 2.157220 -0.000000 -0.000000
RightFoot -10.652324 -4.437390 10.502726
RightToeBase 6.583189 -0.000000 -0.000000
LeftUpLeg -73.863178 -18.541322 -13.175689
LeftLeg 114.220769 -0.000000 -0.000000
LeftFoot 3.507914 8.058954 -30.706569
LeftToeBase 5.737539 -0.000000 -0.000000
Spine 35.795745 35.408462 15.123621
RightShoulder 9.828259 -15.977186 -26.899671
RightArm 35.382095 -15.584236 38.358666
RightForeArm -1.111886 -0.000000 68.516786
RightHand -1.216270 -0.000000 12.714758
RightHandThumb1 -24.326973 -0.000000 -32.862282
LeftShoulder -39.807375 33.588718 2.502062
LeftArm 33.626797 -60.417271 -70.135786
LeftForeArm 6.468339 0.000000 5.745613
LeftHand -27.253385 -0.000000 31.177206
LeftHandThumb1 -26.253704 0.000000 33.147579
Head 12.260261 57.501633 -5.302116
2087
root 0.624108 37.972399 6.009897 -25.950785 -20.077436 10.866734
RightUpLeg 26.873982 0.688694 -6.111436
RightLeg 2.196379 -0.000000 -0.000000
RightFoot -10.694382 -3.966986 10.997423
RightToeBase 7.433047 -0.000000 -0.000000
LeftUpLeg -73.814722 -18.538454 -13.253279
LeftLeg 114.311781 -0.000000 -0.000000
LeftFoot 3.534753 8.014450 -30.555264
LeftToeBase 5.705169 -0.000000 -0.000000
Spine 35.935282 35.574254 15.388687
RightShoulder 9.892831 -16.013755 -26.946430
RightArm 35.026395 -15.464136 38.653262
RightForeArm -1.319912 -0.000000 68.555523
RightHand -1.345610 0.000000 12.760670
RightHandThumb1 -24.326973 -0.000000 -32.862282
LeftShoulder -39.849881 33.600125 2.488540
LeftArm 33.866269 -60.341414 -70.439910
LeftForeArm 6.435238 -0.000000 5.687764
LeftHand -27.250645 0.000000 31.299367
LeftHandThumb1 -26.253704 0.000000 33.147579
Head 12.886590 57.886870 -4.901658
